<?xml version="1.0" standalone="no"?>
<!DOCTYPE svg PUBLIC "-//W3C//DTD SVG 20010904//EN"
 "http://www.w3.org/TR/2001/REC-SVG-20010904/DTD/svg10.dtd">
<svg version="1.0" xmlns="http://www.w3.org/2000/svg"
 width="669.000000pt" height="1649.000000pt" viewBox="0 0 669.000000 1649.000000"
 preserveAspectRatio="xMidYMid meet">

<g transform="translate(0.000000,1649.000000) scale(0.100000,-0.100000)"
fill="#000000" stroke="none">
<path d="M1373 16398 c4 -51 13 -131 22 -178 25 -139 43 -385 55 -725 15 -464
28 -660 50 -787 17 -95 22 -188 31 -573 6 -298 15 -497 24 -565 8 -58 15 -154
15 -214 0 -95 4 -119 31 -200 20 -59 34 -124 39 -186 8 -99 30 -177 60 -220
16 -22 17 -34 9 -90 -20 -131 -22 -319 -4 -400 10 -41 23 -118 30 -170 6 -52
15 -102 19 -111 5 -11 1 -18 -12 -21 -15 -4 -23 -21 -33 -64 -18 -82 -17 -196
4 -423 10 -117 17 -285 17 -425 0 -366 22 -618 79 -921 11 -55 25 -161 31
-235 7 -74 16 -143 21 -152 6 -12 0 -46 -21 -110 -16 -51 -36 -124 -44 -163
-17 -83 -22 -290 -6 -300 12 -7 14 -142 1 -149 -4 -3 -31 -45 -59 -93 -106
-184 -238 -733 -323 -1343 -6 -41 -8 -95 -5 -120 13 -94 119 -200 249 -248 64
-24 283 -62 356 -62 68 0 159 24 231 60 72 36 111 69 135 113 17 32 23 35 74
41 187 20 187 20 254 -9 121 -55 181 -37 231 70 31 65 120 303 142 379 l16 60
30 -85 c16 -46 44 -156 63 -244 33 -158 98 -402 155 -581 16 -50 38 -147 50
-214 12 -68 34 -182 51 -254 34 -153 57 -345 67 -576 6 -137 10 -165 22 -165
13 0 15 40 13 310 -2 337 1 308 -77 690 -19 94 -46 213 -60 265 -25 97 -116
523 -136 640 -6 36 -25 94 -41 130 -64 138 -90 223 -105 345 -14 118 -25 160
-144 545 -27 85 -53 184 -60 220 -6 36 -31 155 -55 265 -40 183 -83 439 -121
720 -9 61 -31 184 -50 275 -19 90 -39 219 -44 285 -22 269 -116 657 -252 1040
-35 99 -68 178 -73 175 -12 -6 -12 -1 9 -110 22 -112 63 -292 148 -640 38
-157 71 -294 73 -305 3 -11 9 -85 15 -165 5 -80 21 -203 35 -275 14 -71 34
-195 45 -275 11 -80 31 -221 44 -314 l25 -170 -34 -70 c-18 -39 -43 -109 -55
-156 -12 -47 -25 -100 -30 -119 -5 -19 -7 -38 -4 -43 9 -14 50 -9 67 10 24 26
67 125 76 174 l7 43 12 -50 c30 -136 35 -185 24 -210 -26 -57 -170 -264 -222
-320 -155 -166 -203 -230 -290 -385 -29 -52 -82 -137 -117 -189 -100 -147
-122 -201 -80 -201 30 0 261 253 346 378 45 68 108 158 138 200 30 42 98 166
151 275 l96 199 17 -89 c10 -48 57 -198 104 -333 66 -187 91 -273 106 -362
l19 -117 -49 -143 c-98 -287 -171 -458 -195 -458 -7 0 -45 12 -82 26 -68 26
-71 26 -171 14 -235 -27 -321 13 -493 229 -81 102 -97 142 -120 303 -12 79
-23 150 -25 158 -13 45 -27 240 -37 529 -11 321 -15 411 -19 421 -2 7 -10 262
-10 332 0 39 12 92 40 175 22 65 56 197 75 293 47 232 110 451 186 640 66 165
120 359 142 505 8 58 13 190 13 365 0 306 -9 384 -71 633 -30 120 -35 159 -40
300 -5 175 0 180 36 40 17 -63 17 -79 6 -122 -7 -28 -10 -55 -6 -62 11 -17 56
-14 85 5 86 56 77 255 -16 359 -34 38 -39 41 -58 29 -12 -7 -21 -10 -21 -7 0
3 16 38 35 79 20 40 40 95 45 122 4 27 25 126 45 219 41 191 57 383 35 410
-17 21 -72 19 -101 -4 -30 -23 -118 -54 -136 -47 -25 10 -13 31 48 81 38 32
85 87 128 150 74 110 87 149 116 335 41 266 89 372 244 548 113 128 227 204
362 242 115 32 167 27 260 -21 65 -34 156 -106 146 -116 -2 -1 -25 5 -52 13
-107 33 -334 -4 -432 -71 -85 -57 -192 -166 -231 -235 -93 -161 -151 -316
-222 -600 -101 -401 -145 -635 -139 -736 2 -24 0 -46 -4 -50 -4 -4 -7 -53 -7
-109 0 -86 5 -118 31 -201 28 -90 30 -109 27 -206 -2 -60 0 -108 5 -108 4 0
15 16 23 35 21 51 18 198 -5 276 -29 92 -44 190 -39 251 8 101 227 1011 272
1128 86 227 145 321 264 421 83 70 104 82 179 105 77 24 94 26 201 21 139 -6
204 -28 241 -82 13 -19 31 -37 40 -40 9 -3 29 -29 43 -58 42 -86 93 -161 172
-251 40 -46 124 -147 186 -223 63 -76 173 -199 245 -273 148 -151 200 -224
241 -337 24 -66 37 -84 93 -137 164 -153 167 -156 200 -260 42 -132 42 -163 0
-440 -25 -159 10 -362 119 -691 74 -220 74 -234 21 -660 -11 -88 -25 -245 -30
-350 -21 -421 -29 -560 -44 -775 -20 -295 -28 -361 -75 -638 -22 -128 -40
-263 -40 -300 l0 -67 -43 67 c-23 37 -58 95 -77 129 -106 189 -184 161 -107
-38 48 -123 76 -175 146 -267 212 -281 292 -565 290 -1040 0 -122 -4 -252 -9
-291 -5 -38 -12 -212 -15 -385 -6 -320 -10 -380 -24 -380 -4 0 -37 42 -74 93
-61 88 -103 131 -305 311 -62 56 -102 80 -102 62 0 -3 24 -29 53 -58 28 -29
71 -79 95 -110 l43 -56 -20 -66 c-11 -36 -27 -121 -36 -188 -9 -67 -18 -124
-20 -127 -1 -3 -13 -62 -25 -131 -14 -81 -25 -197 -30 -330 -7 -188 -28 -410
-80 -865 -10 -93 -22 -222 -25 -285 -3 -63 -16 -198 -27 -300 -18 -153 -22
-253 -23 -580 -2 -245 -7 -435 -15 -500 -7 -58 -14 -220 -15 -360 -1 -140 -7
-286 -13 -325 -6 -38 -12 -152 -12 -251 l0 -182 -25 -6 c-52 -13 -103 -120
-155 -327 -55 -217 -58 -329 -9 -329 14 0 24 18 45 87 15 49 50 160 78 248
l51 160 5 -160 c4 -115 3 -164 -6 -175 -6 -8 -33 -64 -58 -123 -36 -82 -48
-123 -49 -165 -2 -51 0 -57 18 -57 15 0 31 22 65 85 l44 85 7 -40 c4 -22 15
-134 24 -250 10 -115 21 -246 25 -290 5 -44 9 -122 9 -174 1 -57 11 -142 25
-215 43 -210 58 -418 33 -443 -10 -9 -44 25 -61 62 -20 41 -31 99 -46 235 -6
58 -20 148 -31 200 -11 52 -24 154 -29 225 -10 154 -31 246 -74 317 -58 97
-116 117 -230 76 -53 -18 -75 -35 -166 -128 -80 -81 -116 -126 -150 -189 -72
-134 -101 -155 -142 -100 -44 59 -49 339 -9 470 12 36 28 104 36 150 9 46 18
95 21 109 4 17 19 -29 50 -148 53 -209 64 -232 104 -232 45 0 55 29 41 120
-16 100 -94 335 -131 394 l-31 48 51 245 c27 136 52 248 54 251 3 2 10 -16 16
-39 26 -96 103 -270 128 -289 31 -25 70 -36 83 -23 7 7 -23 80 -87 214 -53
112 -101 209 -105 215 -5 5 1 53 11 106 26 124 60 531 60 708 0 134 -30 626
-50 813 -5 51 -10 187 -10 302 0 321 -16 538 -65 912 -14 106 -40 175 -80 213
l-22 20 -75 -45 c-86 -51 -127 -57 -192 -25 -64 31 -142 104 -161 152 -33 83
-31 159 10 313 59 219 113 453 126 535 6 41 26 125 45 186 37 122 39 134 23
134 -29 0 -118 -238 -213 -575 -25 -88 -62 -212 -82 -275 -33 -108 -36 -121
-31 -215 7 -152 44 -219 172 -311 97 -68 174 -89 242 -63 15 5 54 36 85 67
l58 56 0 -119 c0 -110 16 -365 40 -625 6 -58 10 -205 11 -325 0 -121 4 -260 9
-310 19 -195 32 -799 21 -947 -29 -395 -42 -502 -77 -638 -52 -201 -90 -405
-129 -693 -20 -141 -43 -288 -51 -325 -13 -52 -15 -100 -11 -222 7 -187 27
-303 64 -373 23 -43 33 -53 58 -55 46 -4 128 72 206 191 39 59 89 120 129 155
73 66 91 77 158 98 46 14 47 14 69 -11 32 -36 61 -143 79 -284 8 -68 28 -174
44 -235 16 -61 43 -175 59 -253 21 -101 39 -160 62 -204 72 -134 175 -131 200
6 14 76 6 311 -16 425 -9 47 -20 163 -25 258 -5 95 -16 223 -24 285 -20 150
-42 348 -61 537 -17 180 -21 878 -5 1068 5 65 14 189 20 277 7 88 20 219 30
290 27 192 30 230 40 590 5 182 16 393 25 470 54 498 78 808 105 1410 11 232
36 454 66 581 9 38 21 114 28 169 l12 100 62 -123 c77 -150 131 -212 185 -212
49 0 87 35 123 112 29 63 29 63 29 263 -1 215 -18 516 -31 537 -5 7 -12 114
-15 238 -12 384 -41 595 -113 820 -24 74 -47 151 -51 170 -4 19 -20 64 -36 98
-27 60 -28 70 -23 155 4 53 25 174 50 286 25 106 54 236 64 288 25 120 57 471
71 768 6 127 14 282 18 345 7 114 7 115 20 71 7 -24 32 -89 55 -145 108 -252
269 -784 297 -976 13 -91 90 -400 139 -555 126 -405 167 -618 200 -1030 5 -71
15 -169 21 -217 9 -65 9 -149 0 -333 -15 -323 -23 -377 -81 -585 -26 -96 -57
-234 -69 -307 -11 -73 -27 -146 -36 -163 -24 -46 -71 -72 -120 -65 -44 7 -66
27 -188 173 -89 105 -187 172 -187 127 0 -8 7 -15 15 -15 20 0 141 -121 185
-185 92 -136 130 -165 215 -165 54 0 88 16 132 62 43 45 69 106 88 213 9 50
34 176 56 280 21 105 43 233 49 285 13 124 13 578 0 655 -6 33 -17 166 -25
295 -30 469 -53 638 -146 1072 -72 337 -82 378 -158 640 -60 203 -114 360
-166 473 -14 33 -48 114 -75 180 -27 66 -60 147 -75 179 -43 97 -125 356 -125
395 0 21 9 111 21 202 38 292 31 374 -50 648 -79 264 -90 353 -90 688 l0 252
-30 90 c-41 121 -62 152 -179 261 -94 87 -101 96 -130 173 -53 138 -96 200
-257 366 -83 86 -197 216 -255 290 -58 74 -128 162 -157 195 -75 88 -206 282
-232 346 -13 30 -34 73 -48 94 -25 39 -25 42 -18 165 4 69 11 266 16 436 5
171 13 344 18 385 11 86 14 681 5 818 l-7 92 -1130 0 -1130 0 6 -92z m446
-8253 c7 -27 21 -108 32 -178 23 -149 52 -218 143 -335 52 -66 55 -72 34 -72
-13 0 -43 -14 -68 -30 -25 -16 -68 -37 -97 -45 -34 -10 -60 -26 -78 -47 -25
-30 -26 -33 -9 -45 21 -16 124 -17 177 -2 43 12 127 87 127 113 0 13 14 3 48
-32 48 -52 136 -101 182 -102 25 -1 25 -1 -8 -29 -19 -16 -70 -44 -115 -62
-72 -30 -92 -34 -167 -33 -152 2 -372 61 -467 125 -60 42 -83 84 -83 155 0 33
5 77 10 99 5 22 16 83 24 135 103 669 165 950 248 1123 l43 89 6 -389 c4 -251
10 -406 18 -438z"/>
<path d="M1703 8141 c-37 -36 -74 -114 -103 -212 -31 -109 -61 -192 -77 -210
-15 -18 -17 -39 -3 -39 19 0 84 66 121 123 52 80 128 263 131 317 3 39 0 45
-18 48 -13 2 -33 -8 -51 -27z"/>
<path d="M1743 7728 c-38 -42 -93 -139 -93 -167 0 -12 6 -21 15 -21 8 0 15 6
15 14 0 7 7 20 16 27 21 17 114 155 114 169 0 21 -37 9 -67 -22z"/>
<path d="M4219 13373 c-39 -20 -55 -35 -57 -52 -5 -34 13 -48 35 -29 10 9 37
19 61 23 42 7 43 6 58 -30 14 -35 14 -41 -10 -113 -30 -88 -32 -111 -12 -137
13 -18 15 -18 39 -2 32 21 88 133 94 190 10 86 -56 177 -128 177 -14 0 -50
-12 -80 -27z"/>
<path d="M3133 13259 c-32 -16 -83 -54 -113 -83 -64 -63 -77 -70 -150 -85 -85
-18 -113 -58 -71 -100 31 -31 91 -43 149 -30 85 18 130 55 210 172 39 59 72
113 72 121 0 9 -9 20 -19 26 -15 8 -32 3 -78 -21z"/>
<path d="M2876 12659 c-74 -20 -127 -117 -134 -245 -4 -67 -1 -87 16 -121 43
-83 125 -119 167 -73 17 18 16 20 -15 49 -56 51 -70 80 -70 147 0 74 20 136
60 186 17 20 30 41 30 46 0 15 -22 20 -54 11z"/>
<path d="M2619 12523 c-22 -47 -59 -116 -83 -152 -24 -36 -54 -86 -66 -110
-12 -25 -44 -67 -70 -95 -60 -64 -71 -87 -64 -125 11 -51 27 -57 87 -28 66 31
112 82 130 144 56 186 110 349 122 373 19 37 19 66 -1 74 -11 4 -25 -15 -55
-81z"/>
<path d="M2806 11154 c-21 -54 16 -293 73 -469 22 -66 42 -140 46 -165 15
-104 60 -287 112 -460 30 -102 70 -241 88 -310 19 -69 45 -165 60 -215 73
-247 76 -267 85 -510 7 -199 13 -249 39 -375 17 -80 42 -219 56 -310 30 -204
52 -302 110 -478 45 -138 114 -423 139 -581 50 -300 114 -646 156 -836 68
-306 64 -286 47 -279 -11 4 -21 -12 -37 -60 -20 -62 -22 -84 -22 -379 0 -305
5 -367 32 -367 14 0 6 -62 -27 -204 -23 -99 -25 -122 -20 -255 10 -230 20
-309 46 -334 l22 -22 21 25 c22 27 22 -6 2 375 -4 61 -1 155 5 210 6 55 20
181 31 280 22 200 19 389 -6 399 -8 3 -14 20 -14 38 0 18 -7 55 -15 82 -16 54
-21 206 -6 191 14 -15 39 -156 56 -320 9 -82 18 -157 20 -165 2 -8 9 -71 15
-140 6 -69 15 -154 20 -190 5 -36 14 -139 20 -230 6 -91 18 -221 26 -290 13
-112 22 -219 54 -635 5 -66 14 -165 19 -220 6 -55 11 -136 11 -180 1 -133 48
-305 84 -305 13 0 15 25 10 188 -5 236 -22 602 -34 752 -5 63 -12 162 -15 220
-3 58 -10 137 -15 175 -6 39 -17 151 -25 250 -15 185 -37 411 -56 570 -5 50
-19 168 -30 263 -19 165 -64 400 -127 657 -35 141 -48 216 -103 585 -54 370
-101 595 -159 775 -68 212 -86 281 -110 440 -12 77 -38 214 -57 305 -29 135
-36 198 -43 350 -6 129 -16 227 -35 325 -50 261 -125 559 -200 790 -40 127
-92 296 -114 377 -22 81 -47 163 -56 183 -15 37 -15 38 30 120 39 70 75 170
75 205 0 19 -27 10 -52 -17 -14 -16 -42 -61 -63 -102 -20 -40 -40 -70 -44 -65
-23 25 -104 308 -96 334 8 24 -20 29 -29 4z"/>
<path d="M4772 10868 c-46 -39 -97 -89 -113 -112 -61 -87 -125 -170 -148 -192
-19 -20 -21 -26 -11 -39 7 -8 22 -15 33 -15 26 0 100 80 178 190 33 47 82 113
109 148 46 58 62 93 43 91 -5 0 -45 -32 -91 -71z"/>
<path d="M5040 9924 c0 -25 102 -228 160 -317 51 -79 77 -94 73 -42 -2 31
-117 264 -162 330 -29 43 -71 60 -71 29z"/>
<path d="M4990 9606 c0 -26 129 -285 178 -358 27 -40 84 -130 126 -200 72
-119 98 -146 109 -115 6 20 -18 97 -53 167 -34 69 -283 446 -324 493 -28 30
-36 33 -36 13z"/>
<path d="M1904 9268 c-12 -39 -5 -129 21 -269 14 -74 34 -185 45 -246 20 -117
39 -175 67 -205 29 -32 43 -22 43 32 0 63 -36 283 -61 375 -10 39 -28 115 -39
170 -25 120 -40 165 -56 165 -7 0 -16 -10 -20 -22z"/>
<path d="M5003 9174 c-13 -36 465 -690 514 -702 22 -6 15 21 -20 79 -96 155
-164 260 -225 342 -37 51 -89 122 -115 159 -44 62 -120 138 -139 138 -5 0 -11
-7 -15 -16z"/>
<path d="M4930 8997 c0 -36 172 -299 279 -426 51 -62 218 -244 332 -363 44
-46 88 -65 76 -34 -13 34 -156 214 -244 308 -85 92 -193 227 -363 453 -52 69
-80 91 -80 62z"/>
<path d="M4434 8705 c-8 -19 72 -136 161 -239 39 -44 106 -125 149 -179 81
-102 108 -118 114 -65 8 65 -100 218 -279 396 -98 98 -133 119 -145 87z"/>
<path d="M2766 8610 c-14 -17 -44 -63 -66 -101 -22 -38 -58 -99 -79 -136 -22
-38 -84 -116 -140 -176 -107 -115 -134 -160 -190 -321 -21 -59 -28 -93 -22
-99 7 -7 16 1 28 23 40 73 156 240 219 315 98 118 136 178 221 350 53 108 73
159 66 166 -7 7 -18 1 -37 -21z"/>
<path d="M4950 8521 c0 -18 147 -229 252 -362 130 -164 396 -439 424 -439 25
0 44 18 44 43 0 33 -82 140 -189 247 -58 58 -182 188 -276 289 -93 101 -184
194 -201 207 -32 25 -54 31 -54 15z"/>
<path d="M2710 8273 c-69 -136 -147 -283 -174 -327 -26 -45 -66 -126 -88 -181
-22 -55 -44 -101 -49 -103 -15 -6 -10 -32 5 -32 29 0 74 51 168 192 188 277
354 699 276 698 -7 0 -69 -112 -138 -247z"/>
<path d="M4410 8434 c0 -9 13 -33 29 -53 15 -20 36 -51 45 -69 27 -53 190
-263 249 -320 59 -58 90 -65 95 -22 3 31 -10 50 -124 186 -77 92 -276 294
-290 294 -2 0 -4 -7 -4 -16z"/>
<path d="M2893 8313 c-58 -96 -71 -124 -158 -338 -43 -104 -90 -214 -106 -244
-33 -61 -36 -89 -12 -98 45 -17 148 164 273 482 94 237 95 348 3 198z"/>
<path d="M4374 8166 c-10 -25 156 -282 241 -374 44 -48 91 -105 104 -127 13
-22 31 -46 39 -52 24 -19 60 -16 72 7 24 46 -17 125 -129 248 -48 54 -118 133
-155 177 -97 115 -158 158 -172 121z"/>
<path d="M5050 8082 c0 -17 130 -196 244 -339 160 -198 263 -303 298 -303 57
0 43 38 -54 145 -35 39 -111 126 -168 194 -162 194 -320 343 -320 303z"/>
<path d="M4340 7809 c-13 -8 -12 -12 8 -26 13 -9 55 -63 94 -121 70 -103 218
-275 292 -339 36 -32 79 -43 91 -23 14 22 -38 105 -122 192 -49 51 -124 133
-168 182 -78 87 -146 146 -169 146 -6 0 -18 -5 -26 -11z"/>
<path d="M5053 7666 c3 -7 27 -44 54 -82 27 -38 76 -107 109 -154 32 -47 124
-151 204 -232 118 -120 151 -148 173 -148 16 0 30 7 34 16 8 22 -55 109 -135
187 -38 36 -146 147 -241 246 -153 160 -215 212 -198 167z"/>
<path d="M4370 7507 c0 -25 19 -53 92 -138 26 -30 84 -98 129 -153 45 -54 102
-111 127 -127 49 -31 92 -38 92 -15 0 41 -261 345 -354 413 -68 49 -86 53 -86
20z"/>
<path d="M5114 7276 c-7 -19 132 -181 310 -363 97 -99 125 -123 148 -123 52 0
36 38 -53 125 -44 44 -110 114 -145 156 -66 78 -214 211 -240 217 -8 2 -17 -4
-20 -12z"/>
<path d="M5200 6956 c0 -8 5 -18 10 -21 6 -4 45 -52 87 -108 89 -120 171 -207
193 -207 19 0 40 19 40 37 0 19 -192 224 -254 272 -56 43 -76 50 -76 27z"/>
<path d="M3308 6458 c-37 -60 -65 -159 -78 -274 -12 -115 -34 -213 -55 -254
-31 -60 -9 -84 25 -27 24 39 30 56 115 316 70 217 78 273 40 279 -14 2 -28
-10 -47 -40z"/>
<path d="M3423 6278 c-57 -75 -173 -358 -173 -422 0 -25 4 -46 9 -46 10 0 49
58 79 116 36 70 123 316 120 337 -4 25 -21 32 -35 15z"/>
<path d="M3420 6005 c-21 -25 -118 -268 -113 -282 3 -7 10 -13 17 -13 17 0
150 274 143 294 -8 20 -31 21 -47 1z"/>
<path d="M3857 4414 c-12 -13 -7 -141 9 -216 23 -109 64 -391 72 -490 5 -63
12 -92 25 -105 29 -29 51 -6 60 63 13 101 -36 409 -90 557 -14 38 -30 96 -37
130 -12 58 -24 76 -39 61z"/>
</g>
</svg>
