<?xml version="1.0" standalone="no"?>
<!DOCTYPE svg PUBLIC "-//W3C//DTD SVG 20010904//EN"
 "http://www.w3.org/TR/2001/REC-SVG-20010904/DTD/svg10.dtd">
<svg version="1.0" xmlns="http://www.w3.org/2000/svg"
 width="1744.000000pt" height="1000.000000pt" viewBox="0 0 1744.000000 1000.000000"
 preserveAspectRatio="xMidYMid meet">

<g transform="translate(0.000000,1000.000000) scale(0.100000,-0.100000)"
fill="#000000" stroke="none">
<path d="M8580 9093 c-52 -2 -266 -7 -475 -13 -412 -10 -447 -14 -770 -86
-200 -45 -323 -85 -495 -163 -309 -141 -790 -443 -938 -591 -70 -68 -301 -395
-352 -497 -16 -31 -36 -88 -46 -127 -9 -39 -18 -73 -20 -74 -1 -2 -60 39 -131
92 -259 195 -589 329 -900 366 -72 9 -140 8 -325 -5 -333 -23 -451 -39 -680
-91 -428 -97 -481 -117 -813 -316 -298 -178 -436 -303 -610 -550 -367 -522
-541 -893 -618 -1313 -19 -106 -22 -154 -22 -405 l1 -285 36 -175 c78 -370
151 -575 282 -790 59 -97 325 -468 425 -595 118 -148 298 -326 436 -430 115
-86 376 -258 485 -319 182 -102 412 -184 590 -210 58 -9 157 -23 220 -33 142
-21 556 -29 720 -14 64 6 145 20 181 32 35 12 163 71 284 132 l220 110 97 98
97 97 6 -41 c55 -345 110 -520 229 -733 130 -230 242 -397 323 -479 40 -40
127 -110 193 -155 66 -44 152 -107 192 -139 230 -184 546 -332 846 -395 64
-14 160 -34 213 -45 181 -39 474 -56 944 -56 420 0 434 1 610 28 259 40 313
57 535 168 368 184 561 320 835 589 105 102 222 215 260 250 144 131 503 508
573 602 92 123 173 251 256 408 36 67 68 125 70 127 3 3 97 -32 211 -76 270
-107 384 -137 666 -178 105 -15 186 -18 525 -17 242 1 430 7 475 13 96 15 576
122 749 167 168 44 282 98 505 239 94 60 225 141 291 180 329 197 430 284 678
590 322 396 400 524 521 860 137 379 170 581 170 1040 -1 291 -2 305 -32 475
-91 506 -261 835 -656 1272 -54 59 -134 138 -180 176 -130 110 -354 256 -512
335 -128 64 -738 299 -850 327 -329 84 -675 119 -880 90 -88 -13 -443 -100
-595 -147 -128 -39 -246 -94 -324 -150 -28 -21 -112 -90 -186 -154 -74 -63
-167 -137 -207 -163 -92 -60 -225 -178 -283 -249 -25 -31 -47 -56 -51 -57 -3
0 -24 26 -46 58 -86 120 -200 234 -437 439 -146 126 -220 180 -401 293 -193
121 -393 224 -571 293 -78 31 -260 106 -405 167 -145 62 -304 122 -354 136
-136 36 -486 76 -625 72 -36 -1 -108 -3 -160 -5z m370 -647 c248 -45 254 -47
445 -124 202 -81 472 -217 595 -301 52 -35 156 -102 230 -149 74 -46 160 -104
191 -128 71 -54 569 -549 594 -589 10 -16 47 -70 83 -118 l65 -88 -12 -56
c-24 -123 -10 -237 36 -273 56 -44 114 -19 248 110 44 42 70 60 98 64 141 25
271 159 293 302 5 39 20 56 168 201 132 130 174 166 236 198 92 47 218 123
329 198 120 81 157 96 294 123 380 73 446 84 486 84 48 0 166 -25 461 -99 205
-51 213 -54 775 -321 79 -38 273 -195 410 -334 130 -131 312 -368 377 -493 63
-119 113 -268 151 -448 29 -140 32 -163 31 -345 0 -322 -30 -499 -128 -770
-70 -192 -108 -258 -266 -469 -139 -186 -309 -363 -435 -453 -94 -66 -437
-261 -580 -329 -110 -52 -129 -56 -515 -106 -159 -20 -280 -28 -535 -35 -363
-10 -458 -6 -648 22 -155 24 -207 37 -405 101 -115 38 -169 62 -220 96 -124
84 -149 109 -186 186 -44 93 -126 176 -215 220 -62 30 -73 32 -171 32 -95 0
-111 -3 -167 -29 -77 -35 -163 -122 -201 -203 -25 -53 -27 -68 -27 -178 0
-116 1 -123 37 -209 48 -115 108 -219 170 -296 l49 -60 -32 -48 c-94 -137
-223 -308 -300 -397 -118 -136 -438 -449 -584 -570 -66 -55 -160 -136 -210
-180 -49 -44 -112 -99 -140 -122 -76 -62 -334 -213 -527 -308 -226 -111 -254
-116 -674 -122 -300 -5 -428 0 -829 32 -211 16 -537 66 -615 94 -120 42 -383
157 -522 228 -212 108 -291 183 -456 433 -113 171 -231 399 -271 525 -35 110
-55 272 -49 391 4 70 15 120 52 232 25 78 46 150 46 160 0 33 -38 80 -74 92
-67 22 -165 -24 -241 -112 -39 -46 -117 -194 -137 -260 -6 -22 -19 -43 -27
-46 -9 -3 -52 -30 -96 -61 -102 -71 -341 -177 -454 -201 -47 -11 -133 -31
-191 -45 -100 -24 -119 -25 -391 -25 -305 0 -359 6 -606 69 -147 38 -437 142
-498 179 -223 135 -443 316 -614 505 -89 98 -273 328 -267 334 6 6 258 -102
336 -145 73 -39 103 -39 140 0 25 28 26 72 0 113 -30 49 -57 180 -85 411 -56
469 -16 732 169 1119 149 310 349 583 608 828 173 163 226 208 298 250 84 49
229 113 287 127 134 31 210 163 155 269 -59 116 -191 106 -471 -34 -191 -96
-224 -121 -465 -356 -356 -346 -579 -685 -751 -1144 -107 -284 -121 -620 -49
-1115 8 -58 24 -139 35 -182 10 -42 19 -79 19 -81 0 -3 -33 4 -72 15 -40 11
-116 28 -168 37 l-95 16 -46 69 c-76 113 -123 220 -184 411 -76 243 -84 288
-92 520 -8 287 18 439 124 705 94 238 180 388 432 750 115 166 156 202 386
342 77 47 174 107 215 133 101 66 132 76 375 126 l210 44 325 -1 c355 -1 386
-5 539 -64 44 -17 135 -67 203 -112 107 -71 151 -109 344 -302 232 -233 297
-309 416 -484 95 -139 183 -231 277 -290 71 -44 80 -47 143 -47 59 0 70 3 105
31 51 41 115 136 138 209 31 93 27 247 -7 344 -50 138 -194 348 -376 547
l-101 112 21 28 c82 109 136 167 230 250 59 52 158 142 220 200 129 121 137
127 348 242 431 235 669 337 885 381 290 59 314 60 855 56 l495 -4 195 -35z"/>
<path d="M14176 7396 c-15 -14 -26 -31 -26 -39 0 -22 33 -62 150 -182 93 -95
120 -131 202 -270 118 -199 131 -223 157 -310 41 -129 61 -252 61 -365 0 -129
15 -287 36 -390 12 -58 14 -111 10 -240 -3 -91 -6 -182 -7 -202 -1 -50 33
-104 84 -129 79 -41 183 -10 234 68 58 88 57 404 -3 903 -11 96 -26 159 -65
275 -72 217 -138 343 -269 517 -103 138 -117 153 -218 224 -101 72 -236 145
-294 159 -21 5 -33 1 -52 -19z"/>
<path d="M10685 3536 c-39 -17 -93 -78 -178 -197 -37 -53 -125 -159 -195 -235
-70 -77 -158 -177 -195 -224 -159 -198 -408 -438 -632 -606 -176 -132 -621
-336 -825 -378 -254 -51 -500 -60 -641 -21 -73 20 -99 16 -99 -16 0 -55 80
-119 183 -146 76 -20 455 -23 582 -5 123 17 416 97 518 141 297 127 410 193
644 376 214 168 309 260 503 490 37 44 111 127 165 185 181 194 335 419 342
498 5 59 -20 108 -68 134 -40 21 -63 22 -104 4z"/>
<path d="M6440 3363 c-26 -10 -62 -47 -75 -78 -10 -22 -20 -29 -41 -30 -24 0
-30 -6 -42 -45 -8 -25 -15 -90 -15 -145 -1 -81 4 -119 27 -200 37 -133 56
-176 145 -334 85 -149 122 -189 305 -328 120 -92 167 -111 222 -93 39 13 74
60 74 100 0 29 -34 88 -55 96 -8 3 -34 38 -59 78 -24 39 -59 89 -76 111 -18
22 -50 75 -71 117 -22 43 -54 101 -73 130 -66 105 -130 300 -146 446 -11 99
-26 141 -62 166 -23 17 -33 18 -58 9z m-71 -392 c7 -23 10 -45 8 -48 -10 -9
-37 138 -36 194 2 55 2 54 9 -22 4 -44 13 -100 19 -124z"/>
</g>
</svg>
