<?xml version="1.0" standalone="no"?>
<!DOCTYPE svg PUBLIC "-//W3C//DTD SVG 20010904//EN"
 "http://www.w3.org/TR/2001/REC-SVG-20010904/DTD/svg10.dtd">
<svg version="1.0" xmlns="http://www.w3.org/2000/svg"
 width="320.000000pt" height="320.000000pt" viewBox="0 0 320.000000 320.000000"
 preserveAspectRatio="xMidYMid meet">

<g transform="translate(0.000000,320.000000) scale(0.100000,-0.100000)"
fill=" #9cd8d8" stroke="rgb(0, 0, 0)" stroke-width="3">
<path d="M773 2920 c-12 -5 -36 -28 -54 -52 -27 -38 -30 -49 -27 -95 3 -29 8
-56 12 -60 9 -9 26 16 26 38 0 9 15 33 34 54 32 35 52 75 37 75 -3 0 -17 -7
-29 -16 -12 -8 -22 -11 -22 -5 0 5 14 19 30 31 45 32 41 49 -7 30z"/>
<path d="M743 2720 c-34 -51 -43 -85 -20 -78 6 3 13 17 15 31 2 15 8 25 13 22
5 -4 9 -4 9 -2 0 3 7 21 15 41 22 51 6 44 -32 -14z"/>
<path d="M2387 2619 c7 -7 15 -10 18 -7 3 3 -2 9 -12 12 -14 6 -15 5 -6 -5z"/>
<path d="M2320 2616 c0 -8 81 -49 86 -43 8 7 -31 35 -58 42 -16 4 -28 5 -28 1z"/>
<path d="M1915 2544 c-5 -1 -22 -5 -36 -8 -21 -5 -29 -15 -37 -43 -7 -26 -10
-31 -11 -15 -1 12 -7 22 -16 22 -18 0 -21 -55 -4 -65 6 -4 8 -13 5 -20 -2 -7
1 -18 7 -24 6 -6 8 -11 4 -11 -4 0 3 -12 17 -27 14 -15 21 -30 16 -33 -5 -3 0
-14 11 -23 11 -10 24 -15 28 -12 5 2 23 0 41 -6 23 -9 34 -9 43 0 16 16 89 13
115 -5 29 -20 28 -9 -3 28 -24 29 -32 48 -19 48 4 0 13 -8 20 -17 7 -10 15
-15 18 -12 3 3 -3 16 -14 29 -11 13 -20 27 -20 32 0 4 -6 8 -12 9 -16 1 -74
69 -60 69 6 0 13 -6 15 -12 3 -7 6 1 6 18 1 24 -6 36 -25 49 -29 19 -73 33
-89 29z m62 -60 c-3 -3 -12 -4 -19 -1 -8 3 -5 6 6 6 11 1 17 -2 13 -5z"/>
<path d="M1418 2500 c-36 -4 -57 -14 -83 -40 -19 -19 -35 -40 -35 -47 0 -7 -4
-13 -10 -13 -5 0 -10 -5 -10 -12 0 -6 7 -4 18 5 23 21 32 21 32 1 0 -9 13 -28
29 -43 22 -21 41 -28 76 -29 45 -2 46 -2 65 42 10 24 26 48 34 53 13 7 9 16
-26 49 -41 38 -45 40 -90 34z"/>
<path d="M2557 2447 c-4 -26 -13 -61 -22 -77 -17 -33 -20 -60 -5 -60 6 0 10
14 10 30 0 23 5 30 19 30 16 0 18 6 14 53 -6 74 -9 78 -16 24z"/>
<path d="M2157 2294 c-11 -11 3 -24 25 -24 17 0 18 2 8 15 -13 16 -23 19 -33
9z"/>
<path d="M2005 2270 c3 -5 12 -10 20 -10 8 0 20 -8 27 -19 12 -17 80 -61 94
-61 9 0 -17 23 -69 63 -45 35 -86 50 -72 27z"/>
<path d="M2470 2235 c0 -9 5 -15 11 -13 6 2 11 8 11 13 0 5 -5 11 -11 13 -6 2
-11 -4 -11 -13z"/>
<path d="M1690 2208 c-45 -12 -90 -55 -90 -85 0 -13 7 -37 15 -53 10 -19 11
-31 5 -35 -6 -4 -8 -11 -4 -16 3 -5 -6 -29 -20 -54 -30 -50 -31 -55 -13 -55 8
0 23 -10 35 -23 20 -21 21 -25 6 -46 -9 -12 -13 -25 -9 -29 4 -4 45 -8 91 -9
67 -1 92 -6 119 -23 19 -12 33 -26 30 -30 -3 -5 -1 -11 4 -15 18 -10 0 -36
-20 -30 -12 4 -19 2 -19 -6 0 -14 -30 -38 -48 -39 -9 0 -10 8 -6 28 7 25 6 26
-11 12 -17 -14 -18 -13 -13 15 3 17 8 38 12 47 11 24 -32 11 -60 -19 -12 -13
-26 -23 -32 -23 -6 0 -12 -3 -15 -7 -2 -5 -2 -3 -1 4 2 6 -4 14 -13 18 -20 7
-40 -10 -22 -20 8 -5 -1 -14 -26 -26 -33 -16 -40 -17 -65 -4 -31 16 -83 11
-100 -10 -7 -9 -6 -21 4 -40 13 -25 13 -30 -1 -49 -23 -31 -62 -30 -74 1 -6
18 -6 30 2 40 9 11 7 19 -12 39 l-23 25 -23 -46 c-13 -25 -27 -45 -32 -45 -5
0 -30 25 -57 55 -27 30 -55 53 -61 50 -9 -3 -13 6 -13 27 0 20 -9 39 -26 55
l-25 23 -19 -22 c-11 -13 -19 -26 -20 -30 0 -11 41 -47 62 -54 10 -3 18 -12
18 -20 0 -8 -4 -12 -10 -9 -5 3 -10 -3 -10 -15 0 -12 5 -18 10 -15 6 4 10 -9
10 -33 0 -24 6 -45 16 -52 27 -23 37 -50 23 -66 -7 -9 -8 -14 -1 -14 6 0 14 5
17 10 4 6 11 8 16 4 6 -3 5 -12 -3 -21 -11 -14 -10 -15 10 -9 27 9 28 0 5 -27
-18 -19 -17 -20 5 -8 29 15 40 7 22 -14 -12 -14 -10 -16 16 -10 l29 6 -27 -24
c-23 -22 -25 -27 -13 -37 12 -10 15 -9 15 4 0 9 2 16 4 16 2 0 13 3 23 7 17 6
17 5 -1 -15 -11 -13 -16 -28 -12 -39 6 -15 8 -14 19 7 7 13 19 26 27 28 13 4
13 3 2 -11 -10 -12 -11 -21 -2 -37 11 -20 13 -20 29 -6 27 25 33 19 9 -9 -27
-31 -33 -31 -72 -2 -17 13 -39 26 -49 30 -10 4 -26 26 -36 49 -16 38 -92 157
-126 198 -7 8 -20 36 -30 63 -10 26 -22 47 -27 47 -5 0 -7 13 -3 30 4 19 3 30
-4 30 -6 0 -11 -5 -11 -11 0 -5 -4 -8 -8 -5 -5 3 -8 -3 -7 -12 1 -20 57 -157
89 -222 13 -25 21 -50 19 -56 -2 -7 10 -32 27 -57 33 -49 36 -63 18 -70 -7 -3
-1 -6 14 -6 31 -1 52 -31 43 -62 -4 -11 -2 -18 3 -17 16 5 50 -41 56 -77 4
-19 11 -35 17 -35 6 0 7 -5 4 -10 -4 -6 0 -22 9 -35 21 -32 20 -37 -6 -33 -14
2 -25 14 -33 37 -6 19 -17 37 -23 39 -10 3 -10 -2 0 -22 9 -20 9 -29 0 -38 -9
-9 -12 -8 -12 5 0 26 -37 57 -69 57 -22 0 -31 -6 -41 -30 -21 -50 -7 -110 34
-148 35 -31 46 -65 27 -77 -5 -3 -12 -1 -16 5 -3 5 -11 10 -16 10 -19 0 -59
-53 -59 -77 l0 -24 26 20 c15 11 30 18 35 15 15 -9 10 -45 -11 -71 -23 -29
-25 -55 -9 -85 10 -19 9 -20 -10 -15 -26 6 -26 2 0 -34 23 -32 22 -33 -15 -19
-25 9 -26 8 -26 -26 0 -19 7 -46 16 -59 19 -29 13 -41 -25 -50 -23 -5 -31 -14
-37 -38 -5 -25 -2 -34 17 -49 42 -31 59 -52 51 -57 -5 -3 -15 -17 -22 -31 -7
-14 -23 -32 -34 -40 -20 -14 -20 -15 19 -21 22 -4 43 -5 48 -2 4 2 7 27 7 56
0 43 10 73 64 182 35 71 70 148 76 170 7 22 17 50 21 63 6 14 5 31 -1 42 -17
32 -12 79 10 92 11 7 20 17 20 23 2 30 91 105 126 105 7 0 20 25 30 60 l17 60
109 0 c101 0 110 -1 103 -18 -14 -32 -3 -103 24 -159 12 -23 21 -50 21 -61 0
-10 5 -23 11 -29 6 -6 13 -46 15 -89 6 -120 6 -120 58 -168 28 -25 51 -44 53
-42 2 1 -9 29 -23 62 -25 56 -26 65 -21 170 3 60 11 123 17 140 15 38 4 168
-16 185 -20 17 -18 22 18 38 29 13 33 13 49 -7 9 -12 27 -22 39 -22 25 0 52
-24 73 -66 9 -17 22 -34 30 -37 8 -3 22 -21 31 -41 9 -20 21 -36 25 -36 16 0
33 -58 26 -88 -5 -24 -2 -30 15 -35 17 -4 20 -11 15 -26 -3 -12 1 -30 10 -44
8 -13 12 -26 9 -30 -4 -3 -4 -14 0 -23 5 -13 9 -14 21 -4 12 10 15 10 15 -1 0
-9 3 -10 10 -3 7 7 8 19 1 37 -6 16 -7 29 -1 32 12 7 26 -21 35 -66 6 -30 3
-37 -17 -47 -19 -11 -23 -21 -24 -62 0 -28 3 -50 7 -50 5 0 17 -9 28 -21 14
-15 21 -17 26 -8 5 8 4 10 -3 5 -7 -4 -12 -2 -12 4 0 7 7 9 16 6 53 -20 93 87
59 154 -10 19 -22 30 -30 26 -9 -3 -12 0 -9 9 3 7 12 16 21 19 11 5 12 10 5
19 -6 7 -13 31 -16 52 -14 111 -15 136 -6 130 6 -3 10 -17 10 -31 0 -35 30
-28 43 9 6 20 4 42 -7 77 -9 27 -16 59 -16 72 0 24 16 56 23 48 3 -3 41 -93
85 -200 109 -265 122 -294 128 -287 3 3 -9 45 -27 94 -69 191 -110 320 -115
363 -6 46 -1 66 56 255 16 55 30 109 30 120 0 11 16 65 35 120 44 123 57 241
31 279 -10 16 -16 46 -16 81 0 51 11 72 23 43 4 -10 6 -10 6 0 1 7 -6 20 -14
28 -22 22 -19 47 4 39 14 -4 20 1 25 21 8 31 -1 45 -15 24 -7 -12 -10 -11 -15
8 -4 12 -12 22 -20 22 -18 0 -47 -57 -40 -78 5 -13 2 -12 -9 2 -8 11 -15 27
-15 37 0 9 -7 22 -15 29 -8 7 -15 21 -15 32 0 11 -9 22 -20 25 -24 6 -25 16
-5 33 20 17 19 43 -3 63 -24 22 -27 21 -29 -3 -3 -32 -44 -93 -55 -82 -6 6 -6
17 1 30 14 26 14 62 1 62 -6 0 -16 -11 -22 -25 -6 -14 -14 -25 -18 -25 -4 0
-5 -28 -3 -63 4 -50 2 -65 -11 -76 -13 -11 -16 -11 -17 0 -3 45 -7 62 -22 76
-21 22 -25 17 -28 -37 -2 -25 -6 -52 -10 -60 -4 -8 -11 -28 -14 -43 -5 -25
-10 -28 -30 -23 -13 3 -30 3 -39 0 -14 -5 -14 -8 -1 -21 16 -16 20 -43 6 -43
-5 0 -26 15 -47 34 -33 30 -40 32 -46 18 -3 -9 -4 -27 -1 -40 3 -12 0 -29 -7
-37 -10 -12 -10 -18 0 -30 10 -13 9 -15 -9 -15 -15 0 -26 10 -36 32 -9 23 -20
33 -37 33 -17 0 -26 8 -33 31 -6 17 -16 39 -24 48 -9 11 -16 49 -18 108 -4
104 -24 145 -74 155 -16 3 -32 10 -35 14 -6 10 -8 10 -54 -3z m30 -27 c0 -5
-9 -13 -20 -16 -11 -4 -34 -18 -50 -32 -28 -23 -30 -24 -30 -5 0 11 12 30 26
41 27 21 74 29 74 12z m540 -243 c0 -26 -17 -22 -24 5 -11 40 -7 53 9 31 8
-10 15 -27 15 -36z m-330 -163 c0 -38 -2 -44 -14 -33 -14 13 -15 32 -2 61 13
27 16 21 16 -28z m151 18 c-12 -20 -14 -14 -5 12 4 9 9 14 11 11 3 -2 0 -13
-6 -23z m-112 -99 c10 -9 -35 -3 -49 6 -11 8 -7 9 15 4 17 -4 32 -8 34 -10z
m355 1 c63 -30 101 -166 49 -173 -13 -2 -23 -10 -23 -18 0 -8 -4 -14 -10 -14
-6 0 -10 28 -10 63 0 64 -13 91 -56 115 -10 6 -15 16 -11 26 8 20 20 20 61 1z
m4 -257 c22 -47 23 -75 3 -81 -23 -6 -31 10 -31 64 0 44 11 50 28 17z m-948
-173 c0 -8 -9 -15 -20 -15 -22 0 -27 15 -7 23 21 9 27 7 27 -8z m880 -94 c0
-11 5 -23 10 -26 18 -11 12 -47 -7 -43 -12 2 -18 13 -18 33 0 17 -4 36 -8 43
-5 8 -3 12 7 12 9 0 16 -8 16 -19z m-1075 -131 c3 -6 -5 -10 -19 -10 -14 0
-28 5 -31 10 -3 6 5 10 19 10 14 0 28 -4 31 -10z m1034 -306 c3 -16 1 -17 -13
-5 -19 16 -21 34 -3 29 6 -3 14 -13 16 -24z m86 -173 c6 -11 -33 -36 -42 -27
-7 7 16 36 28 36 4 0 10 -4 14 -9z"/>
<path d="M2031 2162 c24 -27 46 -46 47 -40 6 16 -27 57 -60 74 -31 16 -31 15
13 -34z"/>
<path d="M2048 1988 c-3 -19 -2 -25 6 -21 6 4 5 0 -2 -9 -10 -12 -9 -18 3 -28
22 -18 72 14 54 36 -6 8 -20 14 -29 14 -10 0 -20 8 -22 18 -3 12 -6 9 -10 -10z"/>
<path d="M992 1947 c-15 -41 -16 -87 -2 -87 12 0 13 -20 0 -40 -7 -12 -12 -12
-29 4 -12 11 -21 14 -21 8 0 -7 5 -12 10 -12 6 0 10 -10 10 -22 0 -13 4 -29 9
-37 7 -11 13 -9 29 7 31 31 42 57 41 94 0 18 -3 27 -6 21 -2 -7 -9 -13 -14
-13 -12 0 1 33 19 48 13 10 14 14 3 25 -11 9 -14 9 -18 0 -8 -23 -20 -13 -15
12 6 35 -2 31 -16 -8z"/>
<path d="M927 1933 c-2 -5 2 -26 9 -48 l12 -40 1 42 c1 38 -12 65 -22 46z"/>
<path d="M2544 1877 c-9 -24 6 -44 18 -22 7 11 6 21 -1 28 -7 7 -12 6 -17 -6z"/>
<path d="M1020 1696 c0 -7 9 -16 20 -19 11 -3 20 -2 20 2 0 3 -9 12 -20 19
-16 10 -20 10 -20 -2z"/>
<path d="M1086 1594 c-4 -9 -4 -19 -1 -22 2 -3 7 3 11 12 4 9 4 19 1 22 -2 3
-7 -3 -11 -12z"/>
<path d="M1040 1281 c0 -5 5 -13 10 -16 6 -3 10 -2 10 4 0 5 -4 13 -10 16 -5
3 -10 2 -10 -4z"/>
<path d="M1055 1201 c-6 -11 1 -16 37 -25 25 -6 48 7 31 17 -20 11 -62 16 -68
8z"/>
<path d="M1163 1135 c0 -8 4 -12 9 -9 4 3 8 9 8 15 0 5 -4 9 -8 9 -5 0 -9 -7
-9 -15z"/>
<path d="M1100 1130 c0 -5 7 -10 16 -10 8 0 12 5 9 10 -3 6 -10 10 -16 10 -5
0 -9 -4 -9 -10z"/>
<path d="M1675 459 c-19 -12 -44 -19 -67 -17 -20 1 -40 -1 -44 -5 -4 -4 0 -7
8 -7 8 0 26 -8 39 -19 13 -10 41 -21 62 -25 20 -3 52 -9 70 -12 42 -7 120 33
125 65 4 27 -19 28 -42 2 -17 -19 -18 -19 -61 10 -50 34 -50 34 -90 8z"/>
<path d="M2263 428 c-41 -20 -28 -39 20 -32 47 7 63 17 53 33 -9 14 -44 13
-73 -1z"/>
<path d="M2195 419 c-10 -15 3 -25 16 -12 7 7 7 13 1 17 -6 3 -14 1 -17 -5z"/>
<path d="M973 151 c-12 -10 -28 -34 -37 -54 -13 -31 -20 -37 -45 -37 -35 0
-39 14 -14 42 24 27 -1 22 -35 -7 -33 -27 -57 -32 -65 -12 -4 7 -8 3 -13 -11
-5 -16 -11 -21 -23 -16 -35 15 -58 15 -70 0 -11 -13 -10 -18 2 -30 12 -12 31
-14 88 -10 40 3 80 9 88 13 9 5 43 12 75 16 33 4 66 11 75 15 9 5 24 11 34 14
10 3 15 10 12 16 -3 5 1 10 9 10 12 0 16 10 16 35 0 19 -3 35 -6 35 -15 0 -44
-22 -44 -34 0 -16 -28 -41 -37 -33 -3 4 0 13 6 21 7 8 11 22 9 30 -2 12 -6 12
-25 -3z"/>
<path d="M2560 115 l-25 -14 24 -1 c13 0 21 -3 18 -7 -4 -3 0 -15 9 -24 16
-17 15 -19 0 -25 -23 -9 -67 12 -60 29 3 8 -7 19 -23 27 -15 8 -31 16 -34 18
-4 1 -9 -11 -12 -27 -5 -23 -14 -32 -34 -37 -15 -4 -33 -11 -40 -16 -7 -5 -12
-5 -15 2 -1 5 -9 1 -16 -10 -11 -18 -10 -20 10 -21 13 0 46 -2 73 -5 50 -5
108 7 155 31 32 17 48 58 30 79 -15 19 -28 20 -60 1z"/>
</g>
</svg>
