<?xml version="1.0" standalone="no"?>
<!DOCTYPE svg PUBLIC "-//W3C//DTD SVG 20010904//EN"
 "http://www.w3.org/TR/2001/REC-SVG-20010904/DTD/svg10.dtd">
<svg version="1.0" xmlns="http://www.w3.org/2000/svg"
 width="320.000000pt" height="320.000000pt" viewBox="0 0 320.000000 320.000000"
 preserveAspectRatio="xMidYMid meet">

<g transform="translate(0.000000,320.000000) scale(0.100000,-0.100000)"
fill="rgb(127, 217, 207)" stroke="rgb(0, 0, 0)" stroke-width="3">
<path d="M1500 2600 c35 -49 124 -100 143 -81 17 17 -4 50 -55 81 -36 23 -53
28 -58 20 -5 -9 -9 -9 -14 -1 -4 6 -14 11 -22 11 -12 0 -11 -6 6 -30z"/>
<path d="M2148 2593 c11 -21 22 -51 26 -67 7 -30 42 -65 64 -66 7 0 10 -4 7
-10 -3 -5 1 -10 10 -10 12 0 15 6 10 23 -6 21 -5 21 9 3 10 -12 21 -16 32 -12
16 6 16 5 -1 -14 -17 -19 -18 -22 -2 -37 9 -9 20 -14 24 -10 3 4 2 12 -5 19
-7 7 -8 17 -2 28 7 13 3 25 -13 44 -23 26 -43 33 -49 17 -2 -5 -13 -5 -26 0
-17 6 -22 14 -17 28 3 10 -1 23 -9 30 -8 7 -12 20 -9 28 5 13 2 15 -11 10 -13
-5 -17 -3 -13 7 5 13 -12 26 -34 26 -5 0 -1 -17 9 -37z"/>
<path d="M1325 2585 c17 -13 35 -24 40 -24 6 0 -3 11 -20 24 -16 14 -34 25
-40 25 -5 0 4 -11 20 -25z"/>
<path d="M1375 2594 c11 -8 20 -18 19 -22 -2 -15 9 -42 17 -42 14 0 11 16 -6
30 -9 7 -13 15 -10 18 7 7 -15 32 -29 32 -6 0 -2 -7 9 -16z"/>
<path d="M1420 2590 c0 -5 5 -10 11 -10 5 0 7 5 4 10 -3 6 -8 10 -11 10 -2 0
-4 -4 -4 -10z"/>
<path d="M2113 2573 c-9 -25 -9 -34 3 -44 19 -15 27 6 16 46 l-8 30 -11 -32z"/>
<path d="M1497 2561 c7 -26 -13 -28 -40 -3 -19 17 -19 16 -6 -6 15 -24 104
-63 142 -61 17 0 14 3 -12 13 -19 7 -47 27 -62 46 -22 26 -27 28 -22 11z"/>
<path d="M2058 2560 l-38 -16 29 -21 28 -21 12 35 c7 19 11 36 9 37 -1 2 -20
-4 -40 -14z"/>
<path d="M1890 2566 c0 -2 8 -10 18 -17 15 -13 16 -12 3 4 -13 16 -21 21 -21
13z"/>
<path d="M1844 2542 c0 -11 8 -19 19 -19 18 -2 18 -1 2 18 -22 23 -21 23 -21
1z"/>
<path d="M1310 2531 c0 -12 11 -23 30 -30 l31 -10 -21 29 c-24 34 -40 39 -40
11z"/>
<path d="M1936 2515 c4 -8 11 -15 16 -15 6 0 5 6 -2 15 -7 8 -14 15 -16 15 -2
0 -1 -7 2 -15z"/>
<path d="M1427 2509 c7 -7 15 -10 18 -7 3 3 -2 9 -12 12 -14 6 -15 5 -6 -5z"/>
<path d="M2095 2500 c-3 -5 2 -21 12 -36 20 -30 30 -16 13 17 -8 15 -9 19 -1
15 6 -4 11 -2 11 3 0 14 -27 14 -35 1z"/>
<path d="M1212 2460 c11 -16 9 -22 -7 -35 -19 -16 -19 -16 3 -5 12 6 22 15 22
20 0 17 -12 40 -21 40 -5 0 -4 -9 3 -20z"/>
<path d="M1240 2470 c0 -5 8 -10 18 -10 15 0 15 -2 2 -11 -12 -9 -11 -9 5 -4
11 5 32 10 47 13 15 2 25 8 22 13 -7 12 -94 11 -94 -1z"/>
<path d="M2370 2436 c0 -17 24 -76 31 -76 16 0 20 22 6 33 -8 7 -19 21 -25 32
-6 11 -12 16 -12 11z"/>
<path d="M2457 2413 c-4 -3 -7 -20 -7 -36 0 -26 2 -29 26 -23 23 6 24 5 14
-13 -8 -17 -6 -22 11 -32 17 -9 25 -8 37 5 14 13 13 14 -6 9 -18 -4 -22 -1
-22 21 0 14 -4 26 -10 26 -5 0 -10 6 -10 14 0 17 -24 38 -33 29z"/>
<path d="M940 2388 c4 -43 0 -57 -17 -61 -13 -3 -12 -5 5 -6 15 -1 26 6 29 17
3 13 14 19 34 19 47 0 57 18 21 37 -46 24 -74 21 -72 -6z"/>
<path d="M1038 2403 c7 -3 16 -2 19 1 4 3 -2 6 -13 5 -11 0 -14 -3 -6 -6z"/>
<path d="M2652 2352 c-22 -17 -23 -22 -13 -57 5 -21 8 -41 6 -45 -10 -16 11
-27 35 -17 19 7 21 11 9 14 -9 2 -22 22 -29 44 -13 39 -13 42 11 60 13 10 20
19 14 19 -5 0 -21 -9 -33 -18z"/>
<path d="M2265 2350 c-3 -6 1 -7 9 -4 18 7 21 14 7 14 -6 0 -13 -4 -16 -10z"/>
<path d="M2570 2315 c-20 -24 -6 -28 15 -5 10 11 13 20 8 20 -6 0 -16 -7 -23
-15z"/>
<path d="M908 2293 c6 -2 18 -2 25 0 6 3 1 5 -13 5 -14 0 -19 -2 -12 -5z"/>
<path d="M2467 2292 c-7 -10 4 -62 12 -62 4 0 12 13 18 29 9 24 8 31 -4 35
-19 8 -21 7 -26 -2z"/>
<path d="M772 2263 c-16 -16 -34 -38 -41 -50 -11 -22 -10 -23 22 -23 25 0 34
4 34 18 0 9 -5 20 -11 24 -10 7 46 12 60 6 6 -3 28 32 22 36 -1 2 -15 6 -30
10 -22 5 -34 1 -56 -21z"/>
<path d="M898 2273 c7 -3 16 -2 19 1 4 3 -2 6 -13 5 -11 0 -14 -3 -6 -6z"/>
<path d="M2724 2269 c-4 -8 1 -9 17 -5 24 6 24 6 2 -5 -12 -6 -24 -18 -27 -26
-3 -8 -1 -11 4 -8 6 3 10 -1 10 -10 0 -12 8 -14 43 -10 40 6 41 5 18 -8 l-23
-14 22 -6 c25 -6 68 12 90 38 18 22 9 27 -23 10 -15 -8 -25 -10 -22 -6 2 5 -6
12 -20 15 -13 3 -29 15 -35 26 -12 22 -45 27 -56 9z"/>
<path d="M2921 2211 c-6 -10 -8 -21 -5 -23 3 -3 -14 -13 -37 -22 -32 -13 -39
-20 -31 -28 17 -17 75 -13 106 7 32 21 33 33 2 41 -17 4 -22 11 -19 25 7 24
-3 25 -16 0z"/>
<path d="M695 2170 c-3 -5 1 -10 9 -10 9 0 16 5 16 10 0 6 -4 10 -9 10 -6 0
-13 -4 -16 -10z"/>
<path d="M2965 2110 c-3 -5 1 -10 9 -10 9 0 16 5 16 10 0 6 -4 10 -9 10 -6 0
-13 -4 -16 -10z"/>
<path d="M842 2037 c-12 -14 -62 -154 -62 -172 0 -17 62 119 64 140 1 12 6 26
10 33 10 16 1 15 -12 -1z"/>
<path d="M3071 2026 c-7 -8 -8 -17 -3 -20 6 -3 13 1 16 10 9 23 2 28 -13 10z"/>
<path d="M1459 1983 c-12 -16 -12 -17 2 -6 9 7 20 9 24 5 5 -4 5 -1 1 6 -9 16
-11 15 -27 -5z"/>
<path d="M1583 1966 c4 -10 1 -13 -7 -10 -16 6 -64 -31 -54 -42 5 -4 16 0 26
9 40 37 31 14 -12 -29 -42 -42 -90 -105 -110 -144 -4 -8 9 4 29 28 21 23 55
52 76 62 50 26 63 25 19 -1 -41 -24 -121 -108 -141 -147 -7 -15 -24 -44 -37
-65 -12 -21 -20 -43 -16 -49 4 -6 3 -8 -3 -5 -15 9 -46 -111 -58 -228 -3 -27
-7 -68 -11 -90 -4 -29 -2 -36 5 -25 7 9 11 10 11 3 0 -6 -4 -15 -10 -18 -11
-7 -14 -55 -4 -55 4 0 13 8 20 18 7 9 14 12 14 6 0 -6 -9 -19 -20 -29 -16 -14
-20 -32 -21 -84 -2 -57 -3 -52 -10 38 -4 56 -10 105 -13 108 -10 10 -26 -76
-27 -143 -2 -66 -2 -67 -13 -35 l-12 34 -17 -26 c-9 -15 -17 -29 -17 -32 0 -3
-11 -22 -25 -42 -21 -32 -25 -34 -31 -18 -4 11 -3 20 3 22 5 2 8 15 5 28 -3
19 0 25 12 25 10 0 15 4 12 9 -8 12 -8 189 -2 216 38 144 45 232 13 165 -9
-19 -16 -29 -17 -22 0 7 11 37 24 65 13 29 29 70 36 92 7 22 21 57 31 77 31
62 21 67 -15 8 -106 -170 -146 -278 -149 -397 -1 -46 -5 -83 -9 -83 -5 0 -8
-10 -7 -22 0 -22 1 -22 9 -3 l9 20 1 -20 c1 -19 2 -19 20 4 11 13 20 33 21 45
0 20 1 20 10 -2 10 -26 2 -75 -11 -67 -13 8 -51 -46 -45 -64 2 -9 0 -23 -6
-31 -9 -13 -10 -12 -5 3 3 10 2 15 -3 12 -5 -3 -11 0 -14 7 -2 7 -2 0 0 -17 4
-28 3 -27 -16 10 -12 24 -20 33 -20 22 -1 -10 -5 -16 -10 -12 -21 13 -19 -15
4 -49 13 -20 21 -36 16 -36 -13 0 -74 32 -93 48 -20 17 -25 3 -6 -16 9 -9 8
-12 -6 -12 -17 0 -17 -2 2 -34 16 -27 18 -37 8 -45 -9 -7 -16 -7 -24 1 -8 8
-9 5 -5 -10 7 -29 -5 -74 -18 -66 -7 4 -8 -8 -4 -38 6 -36 3 -47 -14 -62 -21
-19 -21 -19 -27 13 -4 21 -10 29 -16 23 -7 -7 -17 -3 -29 9 -20 20 -79 26 -79
9 0 -5 -7 -10 -15 -10 -9 0 -15 9 -15 23 0 28 -28 70 -41 61 -5 -3 -8 -11 -7
-18 2 -7 -10 -25 -27 -40 -16 -15 -23 -24 -15 -20 12 6 13 4 3 -7 -18 -18 -16
-64 2 -83 9 -9 11 -17 5 -21 -5 -3 -10 -15 -10 -26 0 -25 -11 -24 -35 3 -12
15 -20 18 -23 10 -2 -7 -9 -9 -14 -6 -7 5 -8 2 -4 -5 5 -7 11 -10 14 -7 3 3
11 -3 18 -13 22 -30 94 -43 172 -31 125 21 204 43 240 68 21 14 53 29 72 34
50 14 92 56 79 79 -7 14 -4 24 12 40 19 19 30 21 83 17 71 -6 113 -25 175 -79
24 -22 48 -39 53 -39 5 0 28 -13 51 -29 23 -15 58 -33 77 -39 113 -36 160 -52
200 -68 28 -11 74 -18 122 -18 43 -1 78 -4 78 -8 0 -10 66 -21 115 -20 141 3
216 29 268 95 79 100 108 116 207 117 19 0 42 5 50 10 11 7 7 10 -17 10 -18 0
-33 4 -33 8 0 14 23 32 41 32 9 0 23 10 31 22 21 32 40 14 36 -36 l-3 -41 89
4 c49 2 100 7 115 10 32 9 54 47 40 73 -13 25 -37 23 -41 -4 -2 -13 -11 -24
-20 -26 -13 -2 -18 6 -23 35 -7 41 -28 86 -42 90 -5 2 -18 -13 -29 -32 -22
-41 -50 -52 -96 -36 -20 7 -35 8 -41 2 -5 -5 -16 -7 -23 -4 -10 4 -11 10 -3
24 6 13 6 19 -1 19 -17 0 -11 18 9 25 10 3 26 20 34 37 14 29 14 33 -2 47 -13
12 -16 23 -10 43 4 17 3 30 -3 34 -7 4 -6 9 2 14 6 4 12 15 14 24 1 10 8 21
15 26 18 11 6 27 -21 29 -33 2 -137 1 -180 -1 -31 -2 -34 -4 -20 -15 15 -11
15 -12 -7 -13 -21 0 -22 -2 -10 -17 11 -15 9 -14 -9 1 -29 25 -39 14 -17 -20
9 -15 12 -23 5 -19 -7 4 -18 23 -26 42 -12 28 -17 31 -28 21 -16 -16 -29 -68
-18 -68 5 0 7 -11 4 -25 -3 -18 0 -25 11 -25 8 0 25 -9 38 -19 21 -17 22 -19
5 -18 -15 2 -20 -5 -21 -25 -2 -27 8 -37 19 -19 4 5 0 12 -6 14 -7 3 3 3 22 0
39 -6 103 -49 95 -63 -3 -5 3 -18 14 -29 12 -12 18 -27 15 -36 -5 -11 -2 -13
10 -9 9 3 16 1 16 -6 0 -6 -4 -9 -9 -5 -6 3 -13 -11 -17 -31 l-7 -37 -13 32
c-15 36 -54 44 -54 11 0 -11 6 -20 13 -21 6 0 -3 -5 -20 -10 -22 -6 -33 -16
-33 -28 0 -9 -10 -27 -23 -39 l-23 -21 -18 34 c-11 19 -25 35 -33 35 -7 0 -12
5 -10 12 1 6 -9 17 -23 24 -13 7 -28 22 -32 33 -4 12 -13 21 -19 21 -8 0 -7
-5 2 -17 13 -17 12 -17 -6 -2 -11 9 -27 20 -35 24 -13 8 -13 7 -1 -8 11 -14
11 -17 -1 -17 -8 0 -19 5 -25 11 -17 17 -37 1 -22 -17 6 -8 10 -16 8 -18 -2
-2 -13 8 -23 22 -11 14 -14 22 -8 18 7 -4 12 -3 12 2 0 5 -15 8 -34 8 -33 -1
-34 -2 -18 -20 16 -18 16 -18 -7 -11 -18 5 -22 4 -16 -5 6 -10 0 -12 -28 -7
-36 6 -49 -4 -25 -19 7 -5 3 -10 -13 -16 -17 -7 -20 -11 -11 -17 11 -6 10 -11
-3 -25 -9 -9 -11 -16 -5 -16 6 0 9 -4 6 -9 -4 -5 0 -12 6 -15 7 -3 4 -4 -8 -1
-13 3 -27 -1 -35 -12 -12 -15 -12 -16 4 -10 9 3 17 2 17 -3 0 -6 8 -10 18 -11
12 -1 10 -3 -6 -8 l-24 -6 21 -27 c17 -21 18 -27 6 -31 -8 -4 -12 -1 -9 6 7
20 -48 38 -102 32 l-49 -5 40 15 40 14 -45 -4 c-25 -3 -61 0 -80 6 -50 16
-121 30 -150 31 -22 0 -23 1 -7 13 9 6 17 16 17 21 0 4 -5 3 -12 -4 -7 -7 -18
-12 -26 -12 -12 0 -12 3 -1 16 12 14 11 16 -6 12 -11 -2 -19 -9 -18 -15 1 -6
-6 -13 -17 -16 -17 -4 -18 -2 -10 14 15 27 48 42 84 36 l31 -5 -27 11 c-24 9
-41 39 -20 36 20 -3 32 2 27 12 -4 6 -13 8 -19 6 -8 -3 -12 3 -12 16 1 14 -6
23 -19 25 -44 7 -49 12 -29 27 18 14 18 14 -5 15 -20 0 -22 2 -11 15 18 21 5
30 -24 17 -21 -9 -23 -9 -18 10 4 17 2 20 -11 15 -9 -3 -18 0 -21 8 -4 11 2
13 24 8 32 -6 41 12 18 35 -9 9 -9 12 3 13 7 1 18 1 22 0 5 -1 6 3 2 9 -3 6
-11 7 -17 4 -7 -4 -8 -2 -4 4 5 8 21 10 47 6 46 -8 51 6 13 31 -15 10 -38 15
-55 13 -16 -3 -29 -1 -29 4 0 4 7 8 16 8 13 0 14 3 5 14 -9 11 -9 14 1 12 7 0
14 4 15 9 3 18 47 22 61 6 11 -14 14 -14 27 3 8 10 16 23 17 28 2 5 12 6 23 2
19 -8 18 -9 -5 -15 l-25 -7 27 -1 c15 -1 29 3 33 8 8 14 -28 31 -67 32 -18 1
-25 3 -15 6 9 2 15 9 12 14 -4 5 3 9 14 9 12 0 21 5 21 10 0 6 9 10 20 10 11
0 20 4 20 9 0 5 21 20 46 32 37 19 49 21 64 11 11 -7 31 -12 44 -12 30 0 43
-17 19 -23 -13 -3 -11 -5 6 -6 21 -1 22 -3 10 -18 -13 -15 -12 -15 9 -2 15 9
21 21 18 33 -4 14 -2 16 7 7 22 -22 55 -11 91 31 20 23 36 47 36 53 0 13 -29
54 -30 41 0 -5 -9 3 -20 17 -13 16 -27 24 -36 20 -13 -5 -13 -8 2 -24 9 -10
21 -16 25 -13 5 3 6 -2 3 -10 -5 -12 -9 -11 -25 5 -10 10 -26 19 -34 19 -9 0
-18 7 -21 15 -4 8 -10 15 -15 15 -20 0 -67 43 -62 56 8 21 73 17 118 -6 22
-11 44 -20 51 -20 6 0 17 -7 24 -15 11 -13 10 -14 -4 -9 -21 8 -20 4 8 -34
l24 -33 6 25 c9 37 -1 52 -57 82 -36 18 -75 29 -132 34 -74 7 -83 6 -117 -16
-20 -13 -49 -36 -63 -51 -23 -24 -25 -25 -16 -5 13 24 102 98 139 115 17 8 19
13 10 19 -9 5 -4 8 14 8 26 0 52 20 26 20 -7 1 -2 7 11 14 l24 13 -24 17 c-26
19 -28 19 41 1 20 -5 22 -4 10 5 -13 10 -13 12 -1 17 11 4 8 10 -10 24 -13 11
-17 17 -8 14 10 -4 16 0 16 9 0 10 -8 13 -25 10 -34 -7 -42 -12 -42 -30 0 -8
-4 -14 -10 -14 -5 0 -10 -6 -10 -13 0 -18 -57 -71 -98 -91 -18 -10 -52 -34
-75 -54 -41 -36 -41 -36 -23 -7 l19 30 -21 -19 c-12 -11 -22 -30 -22 -43 0
-12 -3 -22 -7 -21 -27 9 -122 -137 -124 -189 0 -28 0 -28 -10 -5 -5 13 -6 29
-3 35 3 7 -2 3 -10 -7 -25 -31 -19 -10 17 62 28 56 52 120 48 130 -1 1 5 15
14 32 8 16 15 35 15 42 -1 16 -40 -57 -45 -84 -3 -11 -8 -25 -13 -32 -5 -6
-14 -30 -22 -54 -8 -25 -16 -38 -21 -31 -4 7 -10 -1 -14 -20 -4 -18 -9 -30
-12 -27 -3 2 0 20 5 38 14 43 26 144 13 108 -20 -55 -42 -181 -50 -280 l-8
-105 -3 80 c-2 64 -4 72 -9 40 -6 -38 -7 -39 -13 -12 -3 16 -2 45 3 65 5 20 8
53 8 72 l-1 35 -19 -40 -20 -40 7 35 c3 19 10 55 14 80 4 25 8 39 9 32 2 -21
18 -5 25 25 24 100 62 200 99 255 53 80 87 119 99 112 5 -3 -5 -21 -22 -40
-44 -50 -37 -61 14 -20 48 40 69 47 40 14 -19 -21 -18 -21 21 2 61 36 80 50
70 50 -6 0 -1 8 10 16 19 15 18 16 -19 9 -35 -6 -37 -5 -23 9 8 9 26 16 39 16
17 0 20 3 9 9 -8 5 -25 7 -38 5 -14 -3 -23 0 -23 8 0 9 -3 8 -10 -2 -6 -10 -8
4 -6 43 2 51 0 57 -17 57 -13 0 -17 -5 -14 -14z m275 -577 c23 -11 42 -22 42
-24 0 -6 -98 32 -120 46 -23 15 26 1 78 -22z m-727 -56 c-6 -21 -12 -58 -13
-83 -1 -41 -2 -42 -6 -10 -4 35 16 146 25 137 2 -3 0 -22 -6 -44z m850 4 c-10
-9 -11 -8 -5 6 3 10 9 15 12 12 3 -3 0 -11 -7 -18z m-284 -63 c-3 -3 -12 -4
-19 -1 -8 3 -5 6 6 6 11 1 17 -2 13 -5z m-301 -50 c-4 -14 -9 -24 -12 -21 -3
2 -2 17 2 31 3 15 9 25 11 22 3 -3 2 -17 -1 -32z m84 0 c0 -8 -19 -13 -24 -6
-3 5 1 9 9 9 8 0 15 -2 15 -3z m1020 -64 c8 -5 11 -10 5 -10 -5 0 -17 5 -25
10 -8 5 -10 10 -5 10 6 0 17 -5 25 -10z m-1113 -37 c-3 -10 -5 -4 -5 12 0 17
2 24 5 18 2 -7 2 -21 0 -30z m-60 -70 c-2 -16 -4 -5 -4 22 0 28 2 40 4 28 2
-13 2 -35 0 -50z m83 19 c0 -15 -2 -15 -10 -2 -13 20 -13 33 0 25 6 -3 10 -14
10 -23z m60 -43 c0 -5 -4 -9 -8 -9 -5 0 -9 7 -9 15 0 8 4 12 9 9 4 -3 8 -9 8
-15z m-226 -45 c3 -8 2 -12 -4 -9 -6 3 -10 10 -10 16 0 14 7 11 14 -7z m133
-80 c-5 -5 -57 13 -57 20 0 3 14 0 31 -6 16 -6 28 -12 26 -14z m1387 -62 c-9
-21 -18 -43 -21 -50 -3 -7 -12 -11 -20 -8 -8 3 -17 6 -19 6 -2 0 -4 5 -4 10 0
6 9 10 19 10 11 0 23 5 27 11 4 7 0 9 -14 5 -13 -4 -22 -1 -26 9 -3 9 0 15 9
15 8 0 20 9 27 19 6 10 17 17 25 14 10 -4 9 -12 -3 -41z m-1803 -2 c10 0 19
-5 19 -10 0 -6 6 -10 13 -9 25 3 35 -2 61 -27 35 -36 33 -43 -11 -37 -21 2
-47 6 -58 7 -22 3 -61 24 -83 44 -12 10 -12 18 -2 43 12 29 13 29 27 9 8 -11
23 -20 34 -20z m495 -59 c-31 -32 -57 -43 -76 -31 -7 4 -1 8 15 8 16 0 38 10
53 26 36 36 43 33 8 -3z m-812 -103 c8 -53 8 -52 -29 -38 -20 7 -24 14 -17 23
5 6 13 30 17 52 8 47 19 33 29 -37z m82 -5 c-11 -11 -19 6 -11 24 8 17 8 17
12 0 3 -10 2 -21 -1 -24z m1389 27 c8 -13 -20 -24 -41 -16 -20 8 -9 26 16 26
10 0 22 -5 25 -10z m-1417 -40 c4 0 13 -9 20 -20 17 -27 3 -25 -33 6 -19 16
-23 23 -12 20 10 -3 22 -6 25 -6z m1049 -46 c-3 -3 -12 -4 -19 -1 -8 3 -5 6 6
6 11 1 17 -2 13 -5z"/>
<path d="M1647 1939 c-8 -29 3 -56 14 -37 7 11 11 10 19 -2 7 -11 12 -12 21
-3 8 8 6 13 -10 18 -12 3 -21 15 -21 26 0 26 -16 24 -23 -2z"/>
<path d="M3096 1947 c3 -10 9 -15 12 -12 3 3 0 11 -7 18 -10 9 -11 8 -5 -6z"/>
<path d="M1429 1913 c-13 -16 -12 -17 4 -4 9 7 17 15 17 17 0 8 -8 3 -21 -13z"/>
<path d="M1483 1895 c-7 -16 -23 -49 -38 -72 -38 -62 -24 -53 19 13 21 30 36
63 34 72 -3 12 -7 8 -15 -13z"/>
<path d="M1368 1893 c-19 -23 -31 -43 -24 -43 2 0 14 14 26 30 23 33 22 40 -2
13z"/>
<path d="M2865 1850 c3 -5 14 -10 23 -10 15 0 15 2 2 10 -20 13 -33 13 -25 0z"/>
<path d="M781 1779 c-7 -23 -15 -48 -17 -58 -3 -9 6 6 20 32 27 51 32 67 18
67 -5 0 -14 -18 -21 -41z"/>
<path d="M2980 1798 c0 -9 5 -20 10 -23 6 -4 8 -11 5 -16 -4 -5 -1 -9 4 -9 15
0 13 21 -4 44 -13 17 -15 17 -15 4z"/>
<path d="M1837 1773 c-13 -12 -7 -22 9 -16 8 3 29 -4 45 -16 35 -26 39 -14 6
17 -23 22 -48 28 -60 15z"/>
<path d="M3153 1715 c4 -26 7 -57 7 -69 1 -17 2 -18 9 -6 14 25 8 113 -8 118
-11 4 -13 -5 -8 -43z"/>
<path d="M1281 1702 c-6 -12 -11 -31 -11 -44 1 -17 5 -12 15 17 15 43 13 59
-4 27z"/>
<path d="M1442 1648 c-27 -57 -56 -147 -49 -154 3 -3 8 10 12 28 4 18 20 62
36 97 32 72 33 97 1 29z"/>
<path d="M1491 1625 c-19 -20 -31 -38 -28 -41 3 -4 0 -19 -8 -35 -8 -15 -12
-35 -9 -44 9 -23 53 44 69 106 7 27 12 49 12 49 -1 0 -17 -16 -36 -35z"/>
<path d="M3014 1643 c3 -10 8 -31 12 -47 l7 -30 9 24 c12 32 2 70 -18 70 -10
0 -14 -6 -10 -17z"/>
<path d="M1221 1571 c-12 -28 -24 -72 -26 -98 -3 -26 -11 -78 -17 -114 -14
-86 -8 -102 20 -48 15 31 25 81 35 174 8 72 13 131 12 133 -1 1 -12 -20 -24
-47z"/>
<path d="M1796 1533 c-15 -8 -26 -16 -24 -17 6 -6 118 18 118 25 0 13 -65 7
-94 -8z"/>
<path d="M972 1460 c0 -14 2 -19 5 -12 2 6 2 18 0 25 -3 6 -5 1 -5 -13z"/>
<path d="M1440 1455 c-11 -13 -10 -14 4 -9 9 3 16 10 16 15 0 13 -6 11 -20 -6z"/>
<path d="M2709 1431 c11 -7 10 -10 -5 -13 -15 -3 -13 -5 8 -10 24 -4 26 -3 17
13 -5 11 -15 19 -22 19 -8 0 -7 -3 2 -9z"/>
<path d="M1431 1423 c-1 -6 -4 -20 -7 -30 -5 -17 -5 -17 6 0 6 10 9 23 6 30
-3 9 -5 9 -5 0z"/>
<path d="M2242 1363 c5 -25 28 -28 28 -4 0 12 -6 21 -16 21 -9 0 -14 -7 -12
-17z"/>
<path d="M2038 1358 c5 -5 16 -8 23 -6 8 3 3 7 -10 11 -17 4 -21 3 -13 -5z"/>
<path d="M2668 1343 c7 -3 16 -2 19 1 4 3 -2 6 -13 5 -11 0 -14 -3 -6 -6z"/>
<path d="M931 1314 c0 -11 3 -14 6 -6 3 7 2 16 -1 19 -3 4 -6 -2 -5 -13z"/>
<path d="M2030 1305 c7 -8 17 -15 22 -15 6 0 5 7 -2 15 -7 8 -17 15 -22 15 -6
0 -5 -7 2 -15z"/>
<path d="M2673 1286 c-6 -7 -7 -19 -3 -26 5 -7 6 -19 3 -27 -3 -9 0 -11 10 -7
15 6 26 41 19 62 -5 15 -14 15 -29 -2z"/>
<path d="M2820 1285 c-7 -9 -10 -18 -7 -21 3 -3 10 4 17 15 13 25 8 27 -10 6z"/>
<path d="M2005 1280 c3 -5 8 -10 11 -10 2 0 4 5 4 10 0 6 -5 10 -11 10 -5 0
-7 -4 -4 -10z"/>
<path d="M2786 1281 c-4 -7 -5 -15 -2 -18 9 -9 19 4 14 18 -4 11 -6 11 -12 0z"/>
<path d="M2575 1270 c3 -5 14 -10 23 -10 15 0 15 2 2 10 -20 13 -33 13 -25 0z"/>
<path d="M2067 1248 c11 -49 15 -54 24 -29 6 16 5 28 -2 37 -17 21 -28 17 -22
-8z"/>
<path d="M1203 1252 c-6 -4 -15 -20 -19 -36 -4 -18 -9 -24 -14 -16 -4 7 -10
-6 -12 -31 -6 -53 4 -69 20 -34 7 15 8 25 2 25 -6 0 -1 9 10 20 19 19 37 66
28 75 -2 2 -9 1 -15 -3z"/>
<path d="M1165 1239 c-4 -6 -5 -12 -2 -15 2 -3 7 2 10 11 7 17 1 20 -8 4z"/>
<path d="M2030 1236 c0 -8 5 -18 10 -21 6 -3 10 3 10 14 0 12 -4 21 -10 21 -5
0 -10 -6 -10 -14z"/>
<path d="M2630 1237 c0 -2 14 -16 30 -32 l30 -29 0 24 c0 13 -3 20 -7 17 -3
-4 -17 0 -30 8 -13 9 -23 14 -23 12z"/>
<path d="M2385 1210 c3 -5 16 -10 28 -9 21 0 21 1 2 9 -28 12 -37 12 -30 0z"/>
<path d="M2580 1196 c0 -2 7 -7 16 -10 8 -3 12 -2 9 4 -6 10 -25 14 -25 6z"/>
<path d="M991 1128 c-1 -27 4 -48 9 -48 12 0 12 47 0 75 -6 15 -9 8 -9 -27z"/>
<path d="M936 1131 c-4 -7 -5 -15 -2 -18 9 -9 19 4 14 18 -4 11 -6 11 -12 0z"/>
<path d="M967 1118 c-2 -7 -1 -22 4 -33 6 -16 8 -14 8 13 1 33 -4 41 -12 20z"/>
<path d="M1516 1107 c-24 -18 -4 -26 39 -16 l30 7 -28 1 c-16 0 -26 5 -22 11
8 14 2 13 -19 -3z"/>
<path d="M1550 1066 c0 -10 28 -13 41 -5 10 6 7 9 -13 9 -16 0 -28 -2 -28 -4z"/>
<path d="M1645 1020 c-3 -5 -2 -10 4 -10 5 0 13 5 16 10 3 6 2 10 -4 10 -5 0
-13 -4 -16 -10z"/>
<path d="M170 944 c-20 -11 -21 -14 -7 -14 10 0 25 7 33 15 19 18 8 18 -26 -1z"/>
<path d="M2840 931 c0 -12 40 -61 50 -61 11 0 -1 42 -16 58 -14 14 -34 16 -34
3z"/>
<path d="M1590 922 c0 -15 40 -42 62 -42 19 0 18 3 -12 25 -35 26 -50 31 -50
17z"/>
<path d="M1544 909 c-3 -6 -1 -16 5 -22 8 -8 11 -5 11 11 0 24 -5 28 -16 11z"/>
<path d="M2157 869 c7 -7 15 -10 18 -7 3 3 -2 9 -12 12 -14 6 -15 5 -6 -5z"/>
<path d="M1688 863 c7 -3 16 -2 19 1 4 3 -2 6 -13 5 -11 0 -14 -3 -6 -6z"/>
<path d="M670 850 c0 -5 5 -10 10 -10 6 0 10 5 10 10 0 6 -4 10 -10 10 -5 0
-10 -4 -10 -10z"/>
<path d="M408 793 c-9 -10 -13 -24 -11 -30 3 -7 -2 -13 -11 -13 -26 0 -18 -30
12 -41 15 -6 39 -16 55 -24 31 -15 31 -15 15 20 -6 14 -17 24 -24 21 -14 -5
-26 31 -13 40 11 7 12 44 1 44 -5 0 -16 -8 -24 -17z"/>
</g>
</svg>
